<?xml version="1.0" standalone="no"?>
<!DOCTYPE svg PUBLIC "-//W3C//DTD SVG 20010904//EN"
 "http://www.w3.org/TR/2001/REC-SVG-20010904/DTD/svg10.dtd">
<svg version="1.0" xmlns="http://www.w3.org/2000/svg"
 width="5000.000000pt" height="1498.000000pt" viewBox="0 0 5000.000000 1498.000000"
 preserveAspectRatio="xMidYMid meet">

<g transform="translate(0.000000,1498.000000) scale(0.100000,-0.100000)"
fill="#000000" stroke="none">
<path d="M17735 11674 c-214 -33 -403 -102 -573 -210 -140 -89 -322 -267 -411
-404 -164 -250 -266 -556 -301 -904 -16 -155 -7 -574 14 -711 62 -386 185
-679 383 -918 280 -336 715 -514 1208 -494 172 7 287 26 429 73 422 137 694
426 801 848 39 153 69 136 -248 136 l-274 0 -11 -51 c-19 -83 -69 -190 -122
-261 -153 -208 -442 -308 -777 -269 -470 55 -760 376 -859 951 -25 151 -31
561 -9 730 73 579 338 920 783 1012 132 27 368 21 487 -12 250 -68 429 -246
491 -489 l18 -71 273 0 c212 0 273 3 273 13 -1 31 -41 189 -65 257 -84 230
-231 421 -430 556 -113 77 -165 103 -295 148 -188 66 -320 86 -543 85 -84 -1
-192 -7 -242 -15z"/>
<path d="M44600 9845 l0 -1775 265 0 265 0 0 1775 0 1775 -265 0 -265 0 0
-1775z"/>
<path d="M47287 11613 c-4 -3 -7 -798 -7 -1765 l0 -1758 255 0 255 0 0 713 c0
758 5 880 45 1005 96 301 368 476 690 442 258 -28 418 -160 491 -405 17 -55
18 -130 21 -907 l4 -848 264 0 265 0 0 849 c0 514 -4 890 -10 952 -38 371
-216 634 -512 752 -120 49 -192 61 -343 61 -157 0 -252 -16 -393 -65 -189 -66
-361 -193 -455 -336 l-42 -64 -3 690 -2 691 -258 0 c-142 0 -262 -3 -265 -7z"/>
<path d="M46095 11396 l-250 -154 -3 -296 -2 -296 -215 0 -215 0 0 -215 0
-215 214 0 215 0 4 -802 c4 -901 2 -872 78 -1028 76 -154 203 -257 384 -311
137 -41 474 -35 607 10 l53 18 3 218 2 217 -22 -6 c-13 -4 -93 -9 -178 -13
-202 -8 -252 5 -325 80 -37 38 -56 68 -70 112 -19 57 -20 92 -20 780 l0 720
288 3 287 2 0 215 0 215 -290 0 -290 0 -2 450 -3 450 -250 -154z"/>
<path d="M42880 10723 c-25 -2 -93 -13 -151 -24 -344 -63 -591 -236 -728 -506
-26 -53 -81 -217 -81 -244 0 -5 121 -9 274 -9 l274 0 11 46 c39 155 164 267
347 310 82 19 285 22 359 4 83 -19 170 -68 225 -126 84 -89 114 -179 126 -373
6 -90 4 -111 -7 -115 -8 -3 -171 -12 -364 -21 -454 -20 -577 -31 -689 -60
-369 -93 -596 -353 -613 -700 -24 -496 303 -847 812 -872 339 -16 624 87 817
296 l64 70 14 -37 c20 -57 78 -139 124 -177 105 -86 236 -119 442 -112 78 2
146 7 153 11 8 5 11 66 11 202 0 188 -1 194 -20 194 -11 0 -28 4 -38 9 -9 5
-38 15 -64 21 -53 14 -99 57 -117 109 -8 24 -11 212 -11 625 0 325 -5 636 -10
690 -37 381 -246 637 -605 741 -153 45 -368 63 -555 48z m638 -1630 c-5 -165
-9 -209 -27 -264 -25 -80 -87 -175 -144 -225 -230 -198 -669 -220 -869 -45
-152 134 -170 428 -35 563 50 50 147 95 247 113 73 14 591 49 774 54 l59 1 -5
-197z"/>
<path d="M20572 10700 c-243 -31 -473 -137 -641 -296 -273 -257 -420 -666
-397 -1104 22 -405 137 -700 364 -933 212 -216 455 -321 780 -334 276 -12 502
49 718 192 367 245 572 726 534 1256 -17 240 -61 413 -151 594 -162 327 -443
541 -803 610 -100 20 -306 27 -404 15z m372 -432 c158 -42 289 -160 371 -333
77 -164 107 -325 107 -580 0 -190 -19 -320 -66 -457 -43 -128 -86 -197 -172
-285 -123 -125 -276 -180 -469 -170 -403 22 -620 306 -650 852 -17 305 57 596
195 770 159 199 412 274 684 203z"/>
<path d="M23445 10700 c-271 -38 -484 -176 -611 -395 l-29 -50 -3 198 -2 197
-265 0 -265 0 0 -1280 0 -1280 264 0 265 0 4 798 c3 784 4 798 26 882 60 230
207 400 399 461 82 26 248 28 330 5 143 -40 237 -142 288 -312 17 -54 18 -130
21 -946 l4 -888 264 0 264 0 4 803 c4 907 0 863 84 1035 103 211 285 326 513
325 158 -1 256 -38 337 -126 52 -56 78 -107 106 -205 21 -76 22 -90 25 -954
l3 -878 264 0 265 0 0 854 c0 518 -4 895 -10 957 -42 418 -257 691 -615 781
-72 18 -117 23 -225 22 -74 0 -162 -6 -195 -13 -84 -18 -227 -75 -299 -118
-114 -69 -267 -237 -317 -346 -12 -26 -13 -25 -63 76 -93 190 -261 325 -470
377 -91 23 -272 33 -361 20z"/>
<path d="M27558 10700 c-96 -14 -242 -63 -317 -107 -90 -54 -206 -165 -263
-253 l-48 -75 0 193 0 192 -265 0 -265 0 0 -1280 0 -1280 265 0 264 0 3 818
c4 915 -1 858 79 1019 113 233 335 354 591 322 156 -19 264 -92 326 -220 62
-128 62 -130 62 -1079 l0 -860 264 0 265 0 4 798 c3 772 4 800 24 877 39 145
92 243 182 333 103 103 235 155 391 155 241 -1 378 -101 446 -329 17 -54 18
-130 21 -946 l4 -888 264 0 265 0 0 883 c0 494 -5 915 -10 957 -31 242 -104
404 -250 550 -119 120 -245 183 -431 216 -108 19 -271 14 -377 -11 -231 -55
-445 -210 -558 -405 l-47 -80 -50 103 c-42 87 -62 115 -136 188 -98 98 -198
155 -335 189 -93 24 -272 33 -368 20z"/>
<path d="M31505 10701 c-163 -19 -364 -93 -509 -186 -77 -49 -213 -180 -275
-264 -184 -249 -273 -574 -258 -945 10 -249 51 -432 136 -612 173 -363 467
-586 856 -650 146 -23 364 -15 505 21 202 50 398 163 540 311 169 176 281 402
337 679 28 141 26 492 -5 642 -109 540 -441 895 -924 988 -98 19 -304 27 -403
16z m343 -427 c177 -46 302 -152 393 -333 81 -162 115 -373 106 -646 -10 -286
-65 -472 -185 -628 -140 -183 -379 -263 -629 -211 -354 73 -543 392 -543 919
0 326 91 598 252 751 152 146 390 204 606 148z"/>
<path d="M34420 10704 c-176 -25 -281 -59 -389 -123 -96 -57 -193 -150 -261
-252 l-60 -90 0 205 0 206 -265 0 -265 0 0 -1280 0 -1280 265 0 265 0 0 759
c0 637 2 772 15 846 49 279 221 475 475 541 95 25 255 22 345 -6 151 -48 251
-155 298 -320 33 -112 37 -233 37 -1027 l0 -793 266 0 265 0 -4 918 c-4 1015
-3 993 -71 1172 -46 125 -89 192 -181 286 -127 129 -264 196 -466 229 -86 14
-206 18 -269 9z"/>
<path d="M40301 10695 c-131 -19 -326 -83 -427 -141 -322 -184 -535 -511 -599
-921 -21 -134 -16 -450 9 -586 94 -507 408 -862 864 -979 264 -67 639 -41 884
61 263 111 458 329 543 609 l6 22 -253 0 -254 0 -18 -37 c-90 -191 -317 -297
-596 -279 -379 24 -603 239 -676 649 -7 45 -14 94 -14 110 l0 27 904 0 903 0
13 125 c28 278 -20 578 -130 800 -171 347 -484 535 -915 550 -94 3 -174 0
-244 -10z m363 -422 c243 -60 391 -257 421 -560 l7 -73 -651 0 -651 0 0 23 c0
13 9 59 20 103 90 349 360 549 715 527 44 -3 107 -12 139 -20z"/>
<path d="M35610 10643 c0 -5 146 -579 324 -1278 l323 -1270 326 -3 c180 -1
327 0 327 4 0 15 484 1920 489 1926 3 4 116 -429 251 -962 l245 -970 315 0
315 0 323 1273 c177 699 322 1275 322 1280 0 4 -114 7 -252 7 l-253 0 -234
-1013 c-128 -556 -236 -1015 -240 -1019 -3 -4 -121 452 -261 1012 l-255 1020
-265 0 -265 0 -255 -1040 c-140 -572 -257 -1036 -260 -1032 -4 4 -111 453
-239 997 -128 545 -237 1009 -243 1033 l-10 42 -264 0 c-145 0 -264 -3 -264
-7z"/>
<path d="M10398 7113 l-337 -338 -127 -305 c-183 -440 -205 -496 -196 -485 16
17 166 235 188 273 12 20 27 38 33 40 6 2 9 7 6 12 -2 4 6 19 19 33 13 14 21
28 19 31 -3 3 2 8 11 12 9 3 13 10 10 15 -3 5 0 9 5 9 6 0 11 5 11 10 0 11 50
83 408 590 115 162 219 312 231 333 13 20 27 37 32 37 6 0 8 4 4 9 -3 6 3 14
12 20 10 6 14 11 9 11 -5 0 -3 7 4 15 7 8 8 15 4 15 -5 0 -161 -152 -346 -337z"/>
<path d="M16632 5148 l3 -1773 725 -3 c762 -3 965 4 1127 38 266 56 471 170
606 335 63 78 141 238 167 345 27 108 38 346 21 446 -17 96 -62 226 -108 308
-42 77 -171 220 -242 269 -25 18 -81 50 -125 73 l-79 41 74 48 c254 164 390
420 390 736 0 146 -18 250 -63 356 -124 301 -408 496 -788 543 -52 6 -396 10
-897 10 l-813 0 2 -1772z m1695 1291 c244 -76 353 -232 353 -504 0 -230 -78
-373 -250 -459 -138 -69 -163 -71 -745 -71 l-520 0 -3 533 -2 533 542 -3 543
-4 82 -25z m8 -1528 c283 -58 424 -237 425 -536 0 -231 -91 -392 -270 -478
-136 -65 -164 -67 -780 -67 l-550 0 0 550 0 550 543 0 c489 0 551 -2 632 -19z"/>
<path d="M24860 5145 l0 -1775 265 0 265 0 2 620 3 620 493 -609 c272 -335
499 -615 506 -621 9 -7 118 -9 341 -8 l328 3 -541 659 c-529 645 -540 660
-524 681 9 11 248 285 530 607 281 323 512 589 512 592 0 3 -135 6 -299 6
l-300 0 -78 -88 c-43 -48 -278 -318 -523 -600 l-445 -512 -3 1100 -2 1100
-265 0 -265 0 0 -1775z"/>
<path d="M20540 6003 c-260 -39 -409 -90 -561 -194 -167 -113 -306 -317 -353
-518 l-14 -61 274 0 273 0 12 42 c43 160 172 275 354 313 92 19 284 19 358 0
234 -61 345 -230 347 -527 0 -49 -1 -88 -2 -88 -2 0 -212 -11 -468 -25 -489
-26 -550 -33 -694 -86 -122 -44 -211 -102 -306 -198 -94 -94 -152 -195 -187
-321 -25 -95 -23 -307 6 -415 92 -352 363 -568 758 -604 224 -21 426 19 628
123 83 42 116 67 192 142 l91 91 36 -72 c58 -118 155 -191 306 -232 50 -13 98
-17 205 -16 77 1 154 6 170 11 l30 8 3 193 2 193 -26 -6 c-20 -5 -27 -3 -31
14 -4 14 -14 20 -34 20 -70 0 -138 55 -159 128 -6 23 -10 255 -10 637 0 724
-7 801 -85 972 -43 94 -79 145 -157 221 -141 138 -290 207 -533 247 -82 14
-356 19 -425 8z m670 -1600 c0 -209 -13 -283 -66 -384 -69 -131 -221 -240
-381 -274 -167 -36 -408 -12 -524 52 -172 93 -247 345 -160 530 51 108 156
172 326 198 55 9 253 24 440 34 187 10 346 19 353 20 9 1 12 -40 12 -176z"/>
<path d="M23398 5980 c-246 -42 -451 -174 -583 -378 -25 -40 -47 -72 -48 -72
-1 0 -2 87 -1 192 1 106 -1 199 -3 206 -4 9 -66 12 -264 12 l-259 0 0 -1285 0
-1285 263 2 262 3 2 760 c1 418 5 788 8 821 9 84 63 237 108 306 86 130 228
228 382 264 98 23 278 15 356 -15 170 -65 268 -206 298 -424 7 -51 11 -371 11
-898 l0 -819 265 0 265 0 0 873 c0 532 -4 907 -10 962 -58 501 -377 788 -875
784 -71 -1 -151 -5 -177 -9z"/>
</g>
</svg>
